<?xml version="1.0" encoding="utf-8" standalone="no"?>
<!DOCTYPE svg PUBLIC "-//W3C//DTD SVG 1.1//EN"
  "http://www.w3.org/Graphics/SVG/1.1/DTD/svg11.dtd">
<svg xmlns:xlink="http://www.w3.org/1999/xlink" width="576pt" height="504pt" viewBox="0 0 576 504" xmlns="http://www.w3.org/2000/svg" version="1.1">
 <metadata>
  <rdf:RDF xmlns:dc="http://purl.org/dc/elements/1.1/" xmlns:cc="http://creativecommons.org/ns#" xmlns:rdf="http://www.w3.org/1999/02/22-rdf-syntax-ns#">
   <cc:Work>
    <dc:type rdf:resource="http://purl.org/dc/dcmitype/StillImage"/>
    <dc:date>2026-06-02T09:39:35.414687</dc:date>
    <dc:format>image/svg+xml</dc:format>
    <dc:creator>
     <cc:Agent>
      <dc:title>Matplotlib v3.10.9, https://matplotlib.org/</dc:title>
     </cc:Agent>
    </dc:creator>
   </cc:Work>
  </rdf:RDF>
 </metadata>
 <defs>
  <style type="text/css">*{stroke-linejoin: round; stroke-linecap: butt}</style>
 </defs>
 <g id="figure_1">
  <g id="patch_1">
   <path d="M 0 504 
L 576 504 
L 576 0 
L 0 0 
z
" style="fill: #ffffff"/>
  </g>
  <g id="patch_2">
   <path d="M 54.84 493.2 
L 521.16 493.2 
L 521.16 26.88 
L 54.84 26.88 
z
" style="fill: #ffffff"/>
  </g>
  <g id="pane3d_1">
   <g id="patch_3">
    <path d="M 90.050376 378.220432 
L 244.044469 249.13953 
L 241.903804 62.981793 
L 80.540299 180.737529 
" style="fill: #f2f2f2; opacity: 0.5; stroke: #f2f2f2; stroke-linejoin: miter"/>
   </g>
  </g>
  <g id="pane3d_2">
   <g id="patch_4">
    <path d="M 244.044469 249.13953 
L 491.150044 320.963365 
L 499.96837 128.393638 
L 241.903804 62.981793 
" style="fill: #e6e6e6; opacity: 0.5; stroke: #e6e6e6; stroke-linejoin: miter"/>
   </g>
  </g>
  <g id="pane3d_3">
   <g id="patch_5">
    <path d="M 90.050376 378.220432 
L 351.994354 463.771335 
L 491.150044 320.963365 
L 244.044469 249.13953 
" style="fill: #ececec; opacity: 0.5; stroke: #ececec; stroke-linejoin: miter"/>
   </g>
  </g>
  <g id="grid3d_1">
   <g id="Line3DCollection_1">
    <path d="M 93.227609 379.258117 
L 247.054821 250.01452 
L 245.041114 63.77701 
" style="fill: none; stroke: #b0b0b0; stroke-width: 0.8"/>
    <path d="M 133.146579 392.295652 
L 284.849576 260.999963 
L 284.44354 73.764376 
" style="fill: none; stroke: #b0b0b0; stroke-width: 0.8"/>
    <path d="M 173.729476 405.550026 
L 323.220751 272.152949 
L 324.472927 83.910659 
" style="fill: none; stroke: #b0b0b0; stroke-width: 0.8"/>
    <path d="M 214.993002 419.026694 
L 362.181635 283.47734 
L 365.144356 94.219681 
" style="fill: none; stroke: #b0b0b0; stroke-width: 0.8"/>
    <path d="M 256.954424 432.731294 
L 401.745927 294.977118 
L 406.473402 104.695389 
" style="fill: none; stroke: #b0b0b0; stroke-width: 0.8"/>
    <path d="M 299.631598 446.669659 
L 441.927754 306.656388 
L 448.476142 115.341859 
" style="fill: none; stroke: #b0b0b0; stroke-width: 0.8"/>
    <path d="M 343.042996 460.847822 
L 482.741689 318.519388 
L 491.169186 126.163301 
" style="fill: none; stroke: #b0b0b0; stroke-width: 0.8"/>
   </g>
  </g>
  <g id="grid3d_2">
   <g id="Line3DCollection_2">
    <path d="M 115.969729 154.882745 
L 123.761665 349.962961 
L 382.562509 432.400888 
" style="fill: none; stroke: #b0b0b0; stroke-width: 0.8"/>
    <path d="M 150.803132 129.462914 
L 156.960619 322.13494 
L 412.608331 401.566483 
" style="fill: none; stroke: #b0b0b0; stroke-width: 0.8"/>
    <path d="M 184.35499 104.978297 
L 188.989647 295.287573 
L 441.541169 371.874274 
" style="fill: none; stroke: #b0b0b0; stroke-width: 0.8"/>
    <path d="M 216.694747 81.378214 
L 219.90952 269.369923 
L 469.42174 343.261949 
" style="fill: none; stroke: #b0b0b0; stroke-width: 0.8"/>
   </g>
  </g>
  <g id="grid3d_3">
   <g id="Line3DCollection_3">
    <path d="M 491.711826 308.695473 
L 243.907826 237.256659 
L 89.44548 365.659387 
" style="fill: none; stroke: #b0b0b0; stroke-width: 0.8"/>
    <path d="M 493.125853 277.816726 
L 243.564052 207.36118 
L 87.922361 334.030824 
" style="fill: none; stroke: #b0b0b0; stroke-width: 0.8"/>
    <path d="M 494.560284 246.492425 
L 243.215555 177.055021 
L 86.376423 301.928416 
" style="fill: none; stroke: #b0b0b0; stroke-width: 0.8"/>
    <path d="M 496.015563 214.712858 
L 242.862238 146.329659 
L 84.807149 269.341436 
" style="fill: none; stroke: #b0b0b0; stroke-width: 0.8"/>
    <path d="M 497.492147 182.468025 
L 242.503999 115.176338 
L 83.214008 236.258828 
" style="fill: none; stroke: #b0b0b0; stroke-width: 0.8"/>
    <path d="M 498.990509 149.747635 
L 242.140736 83.586052 
L 81.596451 202.669197 
" style="fill: none; stroke: #b0b0b0; stroke-width: 0.8"/>
   </g>
  </g>
  <g id="axis3d_1">
   <g id="line2d_1">
    <path d="M 90.050376 378.220432 
L 351.994354 463.771335 
" style="fill: none; stroke: #000000; stroke-width: 0.8; stroke-linecap: square"/>
   </g>
   <g id="xtick_1">
    <g id="line2d_2">
     <path d="M 94.566843 378.13291 
L 90.543408 381.513346 
" style="fill: none; stroke: #000000; stroke-width: 0.8; stroke-linecap: square"/>
    </g>
    <g id="text_1">
     <!-- −15 -->
     <g transform="translate(75.151106 402.492384) scale(0.1 -0.1)">
      <defs>
       <path id="DejaVuSans-2212" d="M 678 2272 
L 4684 2272 
L 4684 1741 
L 678 1741 
L 678 2272 
z
" transform="scale(0.015625)"/>
       <path id="DejaVuSans-31" d="M 794 531 
L 1825 531 
L 1825 4091 
L 703 3866 
L 703 4441 
L 1819 4666 
L 2450 4666 
L 2450 531 
L 3481 531 
L 3481 0 
L 794 0 
L 794 531 
z
" transform="scale(0.015625)"/>
       <path id="DejaVuSans-35" d="M 691 4666 
L 3169 4666 
L 3169 4134 
L 1269 4134 
L 1269 2991 
Q 1406 3038 1543 3061 
Q 1681 3084 1819 3084 
Q 2600 3084 3056 2656 
Q 3513 2228 3513 1497 
Q 3513 744 3044 326 
Q 2575 -91 1722 -91 
Q 1428 -91 1123 -41 
Q 819 9 494 109 
L 494 744 
Q 775 591 1075 516 
Q 1375 441 1709 441 
Q 2250 441 2565 725 
Q 2881 1009 2881 1497 
Q 2881 1984 2565 2268 
Q 2250 2553 1709 2553 
Q 1456 2553 1204 2497 
Q 953 2441 691 2322 
L 691 4666 
z
" transform="scale(0.015625)"/>
      </defs>
      <use xlink:href="#DejaVuSans-2212"/>
      <use xlink:href="#DejaVuSans-31" transform="translate(83.789062 0)"/>
      <use xlink:href="#DejaVuSans-35" transform="translate(147.412109 0)"/>
     </g>
    </g>
   </g>
   <g id="xtick_2">
    <g id="line2d_3">
     <path d="M 134.468203 391.151816 
L 130.49763 394.588262 
" style="fill: none; stroke: #000000; stroke-width: 0.8; stroke-linecap: square"/>
    </g>
    <g id="text_2">
     <!-- −10 -->
     <g transform="translate(115.092911 415.686916) scale(0.1 -0.1)">
      <defs>
       <path id="DejaVuSans-30" d="M 2034 4250 
Q 1547 4250 1301 3770 
Q 1056 3291 1056 2328 
Q 1056 1369 1301 889 
Q 1547 409 2034 409 
Q 2525 409 2770 889 
Q 3016 1369 3016 2328 
Q 3016 3291 2770 3770 
Q 2525 4250 2034 4250 
z
M 2034 4750 
Q 2819 4750 3233 4129 
Q 3647 3509 3647 2328 
Q 3647 1150 3233 529 
Q 2819 -91 2034 -91 
Q 1250 -91 836 529 
Q 422 1150 422 2328 
Q 422 3509 836 4129 
Q 1250 4750 2034 4750 
z
" transform="scale(0.015625)"/>
      </defs>
      <use xlink:href="#DejaVuSans-2212"/>
      <use xlink:href="#DejaVuSans-31" transform="translate(83.789062 0)"/>
      <use xlink:href="#DejaVuSans-30" transform="translate(147.412109 0)"/>
     </g>
    </g>
   </g>
   <g id="xtick_3">
    <g id="line2d_4">
     <path d="M 175.032716 404.387094 
L 171.117327 407.880952 
" style="fill: none; stroke: #000000; stroke-width: 0.8; stroke-linecap: square"/>
    </g>
    <g id="text_3">
     <!-- −5 -->
     <g transform="translate(158.881699 429.101369) scale(0.1 -0.1)">
      <use xlink:href="#DejaVuSans-2212"/>
      <use xlink:href="#DejaVuSans-35" transform="translate(83.789062 0)"/>
     </g>
    </g>
   </g>
   <g id="xtick_4">
    <g id="line2d_5">
     <path d="M 216.277053 417.844182 
L 212.419267 421.396905 
" style="fill: none; stroke: #000000; stroke-width: 0.8; stroke-linecap: square"/>
    </g>
    <g id="text_4">
     <!-- 0 -->
     <g transform="translate(204.361597 442.741287) scale(0.1 -0.1)">
      <use xlink:href="#DejaVuSans-30"/>
     </g>
    </g>
   </g>
   <g id="xtick_5">
    <g id="line2d_6">
     <path d="M 258.218448 431.528706 
L 254.420783 435.141793 
" style="fill: none; stroke: #000000; stroke-width: 0.8; stroke-linecap: square"/>
    </g>
    <g id="text_5">
     <!-- 5 -->
     <g transform="translate(246.351522 456.612403) scale(0.1 -0.1)">
      <use xlink:href="#DejaVuSans-35"/>
     </g>
    </g>
   </g>
   <g id="xtick_6">
    <g id="line2d_7">
     <path d="M 300.874723 445.446478 
L 297.139801 449.121481 
" style="fill: none; stroke: #000000; stroke-width: 0.8; stroke-linecap: square"/>
    </g>
    <g id="text_6">
     <!-- 10 -->
     <g transform="translate(285.878013 470.720645) scale(0.1 -0.1)">
      <use xlink:href="#DejaVuSans-31"/>
      <use xlink:href="#DejaVuSans-30" transform="translate(63.623047 0)"/>
     </g>
    </g>
   </g>
   <g id="xtick_7">
    <g id="line2d_8">
     <path d="M 344.264313 459.603514 
L 340.594864 463.342038 
" style="fill: none; stroke: #000000; stroke-width: 0.8; stroke-linecap: square"/>
    </g>
    <g id="text_7">
     <!-- 15 -->
     <g transform="translate(329.322135 485.072147) scale(0.1 -0.1)">
      <use xlink:href="#DejaVuSans-31"/>
      <use xlink:href="#DejaVuSans-35" transform="translate(63.623047 0)"/>
     </g>
    </g>
   </g>
   <g id="text_8">
    <!-- x -->
    <g transform="translate(198.376599 457.774284) scale(0.1 -0.1)">
     <defs>
      <path id="DejaVuSans-78" d="M 3513 3500 
L 2247 1797 
L 3578 0 
L 2900 0 
L 1881 1375 
L 863 0 
L 184 0 
L 1544 1831 
L 300 3500 
L 978 3500 
L 1906 2253 
L 2834 3500 
L 3513 3500 
z
" transform="scale(0.015625)"/>
     </defs>
     <use xlink:href="#DejaVuSans-78"/>
    </g>
   </g>
  </g>
  <g id="axis3d_2">
   <g id="line2d_9">
    <path d="M 491.150044 320.963365 
L 351.994354 463.771335 
" style="fill: none; stroke: #000000; stroke-width: 0.8; stroke-linecap: square"/>
   </g>
   <g id="xtick_8">
    <g id="line2d_10">
     <path d="M 380.38302 431.706638 
L 386.927049 433.791161 
" style="fill: none; stroke: #000000; stroke-width: 0.8; stroke-linecap: square"/>
    </g>
    <g id="text_9">
     <!-- −10 -->
     <g transform="translate(384.727333 453.237662) scale(0.1 -0.1)">
      <use xlink:href="#DejaVuSans-2212"/>
      <use xlink:href="#DejaVuSans-31" transform="translate(83.789062 0)"/>
      <use xlink:href="#DejaVuSans-30" transform="translate(147.412109 0)"/>
     </g>
    </g>
   </g>
   <g id="xtick_9">
    <g id="line2d_11">
     <path d="M 410.457429 400.898183 
L 416.915522 402.904757 
" style="fill: none; stroke: #000000; stroke-width: 0.8; stroke-linecap: square"/>
    </g>
    <g id="text_10">
     <!-- 0 -->
     <g transform="translate(421.914124 422.143154) scale(0.1 -0.1)">
      <use xlink:href="#DejaVuSans-30"/>
     </g>
    </g>
   </g>
   <g id="xtick_10">
    <g id="line2d_12">
     <path d="M 439.418251 371.230495 
L 445.792224 373.163414 
" style="fill: none; stroke: #000000; stroke-width: 0.8; stroke-linecap: square"/>
    </g>
    <g id="text_11">
     <!-- 10 -->
     <g transform="translate(447.443753 392.20085) scale(0.1 -0.1)">
      <use xlink:href="#DejaVuSans-31"/>
      <use xlink:href="#DejaVuSans-30" transform="translate(63.623047 0)"/>
     </g>
    </g>
   </g>
   <g id="xtick_11">
    <g id="line2d_13">
     <path d="M 467.326211 342.641367 
L 473.617856 344.504612 
" style="fill: none; stroke: #000000; stroke-width: 0.8; stroke-linecap: square"/>
    </g>
    <g id="text_12">
     <!-- 20 -->
     <g transform="translate(475.110104 363.347874) scale(0.1 -0.1)">
      <defs>
       <path id="DejaVuSans-32" d="M 1228 531 
L 3431 531 
L 3431 0 
L 469 0 
L 469 531 
Q 828 903 1448 1529 
Q 2069 2156 2228 2338 
Q 2531 2678 2651 2914 
Q 2772 3150 2772 3378 
Q 2772 3750 2511 3984 
Q 2250 4219 1831 4219 
Q 1534 4219 1204 4116 
Q 875 4013 500 3803 
L 500 4441 
Q 881 4594 1212 4672 
Q 1544 4750 1819 4750 
Q 2544 4750 2975 4387 
Q 3406 4025 3406 3419 
Q 3406 3131 3298 2873 
Q 3191 2616 2906 2266 
Q 2828 2175 2409 1742 
Q 1991 1309 1228 531 
z
" transform="scale(0.015625)"/>
      </defs>
      <use xlink:href="#DejaVuSans-32"/>
      <use xlink:href="#DejaVuSans-30" transform="translate(63.623047 0)"/>
     </g>
    </g>
   </g>
   <g id="text_13">
    <!-- y -->
    <g transform="translate(448.684491 419.92523) scale(0.1 -0.1)">
     <defs>
      <path id="DejaVuSans-79" d="M 2059 -325 
Q 1816 -950 1584 -1140 
Q 1353 -1331 966 -1331 
L 506 -1331 
L 506 -850 
L 844 -850 
Q 1081 -850 1212 -737 
Q 1344 -625 1503 -206 
L 1606 56 
L 191 3500 
L 800 3500 
L 1894 763 
L 2988 3500 
L 3597 3500 
L 2059 -325 
z
" transform="scale(0.015625)"/>
     </defs>
     <use xlink:href="#DejaVuSans-79"/>
    </g>
   </g>
  </g>
  <g id="axis3d_3">
   <g id="line2d_14">
    <path d="M 491.150044 320.963365 
L 499.96837 128.393638 
" style="fill: none; stroke: #000000; stroke-width: 0.8; stroke-linecap: square"/>
   </g>
   <g id="xtick_12">
    <g id="line2d_15">
     <path d="M 489.63179 308.095824 
L 495.876859 309.8962 
" style="fill: none; stroke: #000000; stroke-width: 0.8; stroke-linecap: square"/>
    </g>
    <g id="text_14">
     <!-- 0 -->
     <g transform="translate(506.853828 313.699201) scale(0.1 -0.1)">
      <use xlink:href="#DejaVuSans-30"/>
     </g>
    </g>
   </g>
   <g id="xtick_13">
    <g id="line2d_16">
     <path d="M 491.030359 277.225132 
L 497.321876 279.001334 
" style="fill: none; stroke: #000000; stroke-width: 0.8; stroke-linecap: square"/>
    </g>
    <g id="text_15">
     <!-- 5 -->
     <g transform="translate(508.396429 282.855332) scale(0.1 -0.1)">
      <use xlink:href="#DejaVuSans-35"/>
     </g>
    </g>
   </g>
   <g id="xtick_14">
    <g id="line2d_17">
     <path d="M 492.4491 245.909182 
L 498.78776 247.660323 
" style="fill: none; stroke: #000000; stroke-width: 0.8; stroke-linecap: square"/>
    </g>
    <g id="text_16">
     <!-- 10 -->
     <g transform="translate(506.779999 251.567187) scale(0.1 -0.1)">
      <use xlink:href="#DejaVuSans-31"/>
      <use xlink:href="#DejaVuSans-30" transform="translate(63.623047 0)"/>
     </g>
    </g>
   </g>
   <g id="xtick_15">
    <g id="line2d_18">
     <path d="M 493.888452 214.138271 
L 500.274967 215.863432 
" style="fill: none; stroke: #000000; stroke-width: 0.8; stroke-linecap: square"/>
    </g>
    <g id="text_17">
     <!-- 15 -->
     <g transform="translate(508.367523 219.8251) scale(0.1 -0.1)">
      <use xlink:href="#DejaVuSans-31"/>
      <use xlink:href="#DejaVuSans-35" transform="translate(63.623047 0)"/>
     </g>
    </g>
   </g>
   <g id="xtick_16">
    <g id="line2d_19">
     <path d="M 495.348869 181.902411 
L 501.783965 183.600641 
" style="fill: none; stroke: #000000; stroke-width: 0.8; stroke-linecap: square"/>
    </g>
    <g id="text_18">
     <!-- 20 -->
     <g transform="translate(509.978248 187.619118) scale(0.1 -0.1)">
      <use xlink:href="#DejaVuSans-32"/>
      <use xlink:href="#DejaVuSans-30" transform="translate(63.623047 0)"/>
     </g>
    </g>
   </g>
   <g id="xtick_17">
    <g id="line2d_20">
     <path d="M 496.830815 149.191322 
L 503.315237 150.861636 
" style="fill: none; stroke: #000000; stroke-width: 0.8; stroke-linecap: square"/>
    </g>
    <g id="text_19">
     <!-- 25 -->
     <g transform="translate(511.612686 154.938997) scale(0.1 -0.1)">
      <use xlink:href="#DejaVuSans-32"/>
      <use xlink:href="#DejaVuSans-35" transform="translate(63.623047 0)"/>
     </g>
    </g>
   </g>
   <g id="text_20">
    <!-- z -->
    <g transform="translate(533.329563 224.122503) scale(0.1 -0.1)">
     <defs>
      <path id="DejaVuSans-7a" d="M 353 3500 
L 3084 3500 
L 3084 2975 
L 922 459 
L 3084 459 
L 3084 0 
L 275 0 
L 275 525 
L 2438 3041 
L 353 3041 
L 353 3500 
z
" transform="scale(0.015625)"/>
     </defs>
     <use xlink:href="#DejaVuSans-7a"/>
    </g>
   </g>
  </g>
  <g id="axes_1">
   <g id="line2d_21">
    <path d="M 278.52349 347.80884 
L 279.971182 345.677432 
L 277.161213 345.172339 
L 278.091792 345.328972 
L 287.653801 339.828503 
L 286.879992 338.902837 
L 265.270907 336.487946 
L 256.214563 330.46163 
L 262.357616 333.218199 
L 249.545259 305.228725 
L 282.770909 335.00503 
L 237.773884 285.907125 
L 374.709372 282.13488 
L 303.694034 242.9664 
L 237.347107 234.814555 
L 198.525714 288.183668 
L 292.867613 230.760088 
L 288.336091 229.868644 
L 270.674524 227.096461 
L 394.933451 288.845941 
L 240.034095 215.248012 
L 163.747588 234.631587 
L 212.366808 291.628181 
L 310.789964 311.733838 
L 382.281947 301.951201 
L 380.909714 232.45286 
L 261.151988 299.843436 
L 222.42087 287.497942 
L 290.044203 97.04296 
" clip-path="url(#p239dc93c80)" style="fill: none; stroke: #2457a6; stroke-opacity: 0.65; stroke-width: 0.9; stroke-linecap: square"/>
   </g>
   <g id="Path3DCollection_1">
    <defs>
     <path id="C0_0_14a009735c" d="M 0 2.645751 
C 0.701661 2.645751 1.374679 2.366978 1.870829 1.870829 
C 2.366978 1.374679 2.645751 0.701661 2.645751 -0 
C 2.645751 -0.701661 2.366978 -1.374679 1.870829 -1.870829 
C 1.374679 -2.366978 0.701661 -2.645751 0 -2.645751 
C -0.701661 -2.645751 -1.374679 -2.366978 -1.870829 -1.870829 
C -2.366978 -1.374679 -2.645751 -0.701661 -2.645751 0 
C -2.645751 0.701661 -2.366978 1.374679 -1.870829 1.870829 
C -1.374679 2.366978 -0.701661 2.645751 0 2.645751 
z
"/>
    </defs>
    <g clip-path="url(#p239dc93c80)">
     <use xlink:href="#C0_0_14a009735c" x="290.044203" y="97.04296" style="fill: #1f77b4; fill-opacity: 0.3; stroke: #1f77b4; stroke-opacity: 0.3"/>
    </g>
    <g clip-path="url(#p239dc93c80)">
     <use xlink:href="#C0_0_14a009735c" x="240.034095" y="215.248012" style="fill: #1f77b4; fill-opacity: 0.363267; stroke: #1f77b4; stroke-opacity: 0.363267"/>
    </g>
    <g clip-path="url(#p239dc93c80)">
     <use xlink:href="#C0_0_14a009735c" x="237.347107" y="234.814555" style="fill: #d62728; fill-opacity: 0.380567; stroke: #d62728; stroke-opacity: 0.380567"/>
    </g>
    <g clip-path="url(#p239dc93c80)">
     <use xlink:href="#C0_0_14a009735c" x="270.674524" y="227.096461" style="fill: #d62728; fill-opacity: 0.381757; stroke: #d62728; stroke-opacity: 0.381757"/>
    </g>
    <g clip-path="url(#p239dc93c80)">
     <use xlink:href="#C0_0_14a009735c" x="288.336091" y="229.868644" style="fill: #d62728; fill-opacity: 0.396911; stroke: #d62728; stroke-opacity: 0.396911"/>
    </g>
    <g clip-path="url(#p239dc93c80)">
     <use xlink:href="#C0_0_14a009735c" x="292.867613" y="230.760088" style="fill: #d62728; fill-opacity: 0.401868; stroke: #d62728; stroke-opacity: 0.401868"/>
    </g>
    <g clip-path="url(#p239dc93c80)">
     <use xlink:href="#C0_0_14a009735c" x="303.694034" y="242.9664" style="fill: #d62728; fill-opacity: 0.423249; stroke: #d62728; stroke-opacity: 0.423249"/>
    </g>
    <g clip-path="url(#p239dc93c80)">
     <use xlink:href="#C0_0_14a009735c" x="237.773884" y="285.907125" style="fill: #d62728; fill-opacity: 0.435833; stroke: #d62728; stroke-opacity: 0.435833"/>
    </g>
    <g clip-path="url(#p239dc93c80)">
     <use xlink:href="#C0_0_14a009735c" x="249.545259" y="305.228725" style="fill: #d62728; fill-opacity: 0.44983; stroke: #d62728; stroke-opacity: 0.44983"/>
    </g>
    <g clip-path="url(#p239dc93c80)">
     <use xlink:href="#C0_0_14a009735c" x="278.52349" y="347.80884" style="fill: #d62728; fill-opacity: 0.473319; stroke: #d62728; stroke-opacity: 0.473319"/>
    </g>
    <g clip-path="url(#p239dc93c80)">
     <use xlink:href="#C0_0_14a009735c" x="279.971182" y="345.677432" style="fill: #1f77b4; fill-opacity: 0.475858; stroke: #1f77b4; stroke-opacity: 0.475858"/>
    </g>
    <g clip-path="url(#p239dc93c80)">
     <use xlink:href="#C0_0_14a009735c" x="286.879992" y="338.902837" style="fill: #d62728; fill-opacity: 0.482795; stroke: #d62728; stroke-opacity: 0.482795"/>
    </g>
    <g clip-path="url(#p239dc93c80)">
     <use xlink:href="#C0_0_14a009735c" x="287.653801" y="339.828503" style="fill: #9467bd; fill-opacity: 0.486658; stroke: #9467bd; stroke-opacity: 0.486658"/>
    </g>
    <g clip-path="url(#p239dc93c80)">
     <use xlink:href="#C0_0_14a009735c" x="163.747588" y="234.631587" style="fill: #1f77b4; fill-opacity: 0.48725; stroke: #1f77b4; stroke-opacity: 0.48725"/>
    </g>
    <g clip-path="url(#p239dc93c80)">
     <use xlink:href="#C0_0_14a009735c" x="265.270907" y="336.487946" style="fill: #d62728; fill-opacity: 0.489055; stroke: #d62728; stroke-opacity: 0.489055"/>
    </g>
    <g clip-path="url(#p239dc93c80)">
     <use xlink:href="#C0_0_14a009735c" x="277.161213" y="345.172339" style="fill: #ff7f0e; fill-opacity: 0.498704; stroke: #ff7f0e; stroke-opacity: 0.498704"/>
    </g>
    <g clip-path="url(#p239dc93c80)">
     <use xlink:href="#C0_0_14a009735c" x="278.091792" y="345.328972" style="fill: #ff7f0e; fill-opacity: 0.500677; stroke: #ff7f0e; stroke-opacity: 0.500677"/>
    </g>
    <g clip-path="url(#p239dc93c80)">
     <use xlink:href="#C0_0_14a009735c" x="256.214563" y="330.46163" style="fill: #ff7f0e; fill-opacity: 0.55616; stroke: #ff7f0e; stroke-opacity: 0.55616"/>
    </g>
    <g clip-path="url(#p239dc93c80)">
     <use xlink:href="#C0_0_14a009735c" x="380.909714" y="232.45286" style="fill: #d62728; fill-opacity: 0.558832; stroke: #d62728; stroke-opacity: 0.558832"/>
    </g>
    <g clip-path="url(#p239dc93c80)">
     <use xlink:href="#C0_0_14a009735c" x="262.357616" y="333.218199" style="fill: #d62728; fill-opacity: 0.57366; stroke: #d62728; stroke-opacity: 0.57366"/>
    </g>
    <g clip-path="url(#p239dc93c80)">
     <use xlink:href="#C0_0_14a009735c" x="282.770909" y="335.00503" style="fill: #d62728; fill-opacity: 0.63755; stroke: #d62728; stroke-opacity: 0.63755"/>
    </g>
    <g clip-path="url(#p239dc93c80)">
     <use xlink:href="#C0_0_14a009735c" x="374.709372" y="282.13488" style="fill: #2ca02c; fill-opacity: 0.645881; stroke: #2ca02c; stroke-opacity: 0.645881"/>
    </g>
    <g clip-path="url(#p239dc93c80)">
     <use xlink:href="#C0_0_14a009735c" x="198.525714" y="288.183668" style="fill: #d62728; fill-opacity: 0.711105; stroke: #d62728; stroke-opacity: 0.711105"/>
    </g>
    <g clip-path="url(#p239dc93c80)">
     <use xlink:href="#C0_0_14a009735c" x="394.933451" y="288.845941" style="fill: #d62728; fill-opacity: 0.786054; stroke: #d62728; stroke-opacity: 0.786054"/>
    </g>
    <g clip-path="url(#p239dc93c80)">
     <use xlink:href="#C0_0_14a009735c" x="212.366808" y="291.628181" style="fill: #1f77b4; fill-opacity: 0.838954; stroke: #1f77b4; stroke-opacity: 0.838954"/>
    </g>
    <g clip-path="url(#p239dc93c80)">
     <use xlink:href="#C0_0_14a009735c" x="310.789964" y="311.733838" style="fill: #1f77b4; fill-opacity: 0.966433; stroke: #1f77b4; stroke-opacity: 0.966433"/>
    </g>
    <g clip-path="url(#p239dc93c80)">
     <use xlink:href="#C0_0_14a009735c" x="382.281947" y="301.951201" style="fill: #d62728; fill-opacity: 0.966725; stroke: #d62728; stroke-opacity: 0.966725"/>
    </g>
    <g clip-path="url(#p239dc93c80)">
     <use xlink:href="#C0_0_14a009735c" x="222.42087" y="287.497942" style="fill: #2ca02c; fill-opacity: 0.977448; stroke: #2ca02c; stroke-opacity: 0.977448"/>
    </g>
    <g clip-path="url(#p239dc93c80)">
     <use xlink:href="#C0_0_14a009735c" x="261.151988" y="299.843436" style="fill: #d62728; stroke: #d62728"/>
    </g>
   </g>
   <g id="text_21">
    <!-- Conical helix: base 10 -->
    <g transform="translate(221.967188 20.88) scale(0.12 -0.12)">
     <defs>
      <path id="DejaVuSans-43" d="M 4122 4306 
L 4122 3641 
Q 3803 3938 3442 4084 
Q 3081 4231 2675 4231 
Q 1875 4231 1450 3742 
Q 1025 3253 1025 2328 
Q 1025 1406 1450 917 
Q 1875 428 2675 428 
Q 3081 428 3442 575 
Q 3803 722 4122 1019 
L 4122 359 
Q 3791 134 3420 21 
Q 3050 -91 2638 -91 
Q 1578 -91 968 557 
Q 359 1206 359 2328 
Q 359 3453 968 4101 
Q 1578 4750 2638 4750 
Q 3056 4750 3426 4639 
Q 3797 4528 4122 4306 
z
" transform="scale(0.015625)"/>
      <path id="DejaVuSans-6f" d="M 1959 3097 
Q 1497 3097 1228 2736 
Q 959 2375 959 1747 
Q 959 1119 1226 758 
Q 1494 397 1959 397 
Q 2419 397 2687 759 
Q 2956 1122 2956 1747 
Q 2956 2369 2687 2733 
Q 2419 3097 1959 3097 
z
M 1959 3584 
Q 2709 3584 3137 3096 
Q 3566 2609 3566 1747 
Q 3566 888 3137 398 
Q 2709 -91 1959 -91 
Q 1206 -91 779 398 
Q 353 888 353 1747 
Q 353 2609 779 3096 
Q 1206 3584 1959 3584 
z
" transform="scale(0.015625)"/>
      <path id="DejaVuSans-6e" d="M 3513 2113 
L 3513 0 
L 2938 0 
L 2938 2094 
Q 2938 2591 2744 2837 
Q 2550 3084 2163 3084 
Q 1697 3084 1428 2787 
Q 1159 2491 1159 1978 
L 1159 0 
L 581 0 
L 581 3500 
L 1159 3500 
L 1159 2956 
Q 1366 3272 1645 3428 
Q 1925 3584 2291 3584 
Q 2894 3584 3203 3211 
Q 3513 2838 3513 2113 
z
" transform="scale(0.015625)"/>
      <path id="DejaVuSans-69" d="M 603 3500 
L 1178 3500 
L 1178 0 
L 603 0 
L 603 3500 
z
M 603 4863 
L 1178 4863 
L 1178 4134 
L 603 4134 
L 603 4863 
z
" transform="scale(0.015625)"/>
      <path id="DejaVuSans-63" d="M 3122 3366 
L 3122 2828 
Q 2878 2963 2633 3030 
Q 2388 3097 2138 3097 
Q 1578 3097 1268 2742 
Q 959 2388 959 1747 
Q 959 1106 1268 751 
Q 1578 397 2138 397 
Q 2388 397 2633 464 
Q 2878 531 3122 666 
L 3122 134 
Q 2881 22 2623 -34 
Q 2366 -91 2075 -91 
Q 1284 -91 818 406 
Q 353 903 353 1747 
Q 353 2603 823 3093 
Q 1294 3584 2113 3584 
Q 2378 3584 2631 3529 
Q 2884 3475 3122 3366 
z
" transform="scale(0.015625)"/>
      <path id="DejaVuSans-61" d="M 2194 1759 
Q 1497 1759 1228 1600 
Q 959 1441 959 1056 
Q 959 750 1161 570 
Q 1363 391 1709 391 
Q 2188 391 2477 730 
Q 2766 1069 2766 1631 
L 2766 1759 
L 2194 1759 
z
M 3341 1997 
L 3341 0 
L 2766 0 
L 2766 531 
Q 2569 213 2275 61 
Q 1981 -91 1556 -91 
Q 1019 -91 701 211 
Q 384 513 384 1019 
Q 384 1609 779 1909 
Q 1175 2209 1959 2209 
L 2766 2209 
L 2766 2266 
Q 2766 2663 2505 2880 
Q 2244 3097 1772 3097 
Q 1472 3097 1187 3025 
Q 903 2953 641 2809 
L 641 3341 
Q 956 3463 1253 3523 
Q 1550 3584 1831 3584 
Q 2591 3584 2966 3190 
Q 3341 2797 3341 1997 
z
" transform="scale(0.015625)"/>
      <path id="DejaVuSans-6c" d="M 603 4863 
L 1178 4863 
L 1178 0 
L 603 0 
L 603 4863 
z
" transform="scale(0.015625)"/>
      <path id="DejaVuSans-20" transform="scale(0.015625)"/>
      <path id="DejaVuSans-68" d="M 3513 2113 
L 3513 0 
L 2938 0 
L 2938 2094 
Q 2938 2591 2744 2837 
Q 2550 3084 2163 3084 
Q 1697 3084 1428 2787 
Q 1159 2491 1159 1978 
L 1159 0 
L 581 0 
L 581 4863 
L 1159 4863 
L 1159 2956 
Q 1366 3272 1645 3428 
Q 1925 3584 2291 3584 
Q 2894 3584 3203 3211 
Q 3513 2838 3513 2113 
z
" transform="scale(0.015625)"/>
      <path id="DejaVuSans-65" d="M 3597 1894 
L 3597 1613 
L 953 1613 
Q 991 1019 1311 708 
Q 1631 397 2203 397 
Q 2534 397 2845 478 
Q 3156 559 3463 722 
L 3463 178 
Q 3153 47 2828 -22 
Q 2503 -91 2169 -91 
Q 1331 -91 842 396 
Q 353 884 353 1716 
Q 353 2575 817 3079 
Q 1281 3584 2069 3584 
Q 2775 3584 3186 3129 
Q 3597 2675 3597 1894 
z
M 3022 2063 
Q 3016 2534 2758 2815 
Q 2500 3097 2075 3097 
Q 1594 3097 1305 2825 
Q 1016 2553 972 2059 
L 3022 2063 
z
" transform="scale(0.015625)"/>
      <path id="DejaVuSans-3a" d="M 750 794 
L 1409 794 
L 1409 0 
L 750 0 
L 750 794 
z
M 750 3309 
L 1409 3309 
L 1409 2516 
L 750 2516 
L 750 3309 
z
" transform="scale(0.015625)"/>
      <path id="DejaVuSans-62" d="M 3116 1747 
Q 3116 2381 2855 2742 
Q 2594 3103 2138 3103 
Q 1681 3103 1420 2742 
Q 1159 2381 1159 1747 
Q 1159 1113 1420 752 
Q 1681 391 2138 391 
Q 2594 391 2855 752 
Q 3116 1113 3116 1747 
z
M 1159 2969 
Q 1341 3281 1617 3432 
Q 1894 3584 2278 3584 
Q 2916 3584 3314 3078 
Q 3713 2572 3713 1747 
Q 3713 922 3314 415 
Q 2916 -91 2278 -91 
Q 1894 -91 1617 61 
Q 1341 213 1159 525 
L 1159 0 
L 581 0 
L 581 4863 
L 1159 4863 
L 1159 2969 
z
" transform="scale(0.015625)"/>
      <path id="DejaVuSans-73" d="M 2834 3397 
L 2834 2853 
Q 2591 2978 2328 3040 
Q 2066 3103 1784 3103 
Q 1356 3103 1142 2972 
Q 928 2841 928 2578 
Q 928 2378 1081 2264 
Q 1234 2150 1697 2047 
L 1894 2003 
Q 2506 1872 2764 1633 
Q 3022 1394 3022 966 
Q 3022 478 2636 193 
Q 2250 -91 1575 -91 
Q 1294 -91 989 -36 
Q 684 19 347 128 
L 347 722 
Q 666 556 975 473 
Q 1284 391 1588 391 
Q 1994 391 2212 530 
Q 2431 669 2431 922 
Q 2431 1156 2273 1281 
Q 2116 1406 1581 1522 
L 1381 1569 
Q 847 1681 609 1914 
Q 372 2147 372 2553 
Q 372 3047 722 3315 
Q 1072 3584 1716 3584 
Q 2034 3584 2315 3537 
Q 2597 3491 2834 3397 
z
" transform="scale(0.015625)"/>
     </defs>
     <use xlink:href="#DejaVuSans-43"/>
     <use xlink:href="#DejaVuSans-6f" transform="translate(69.824219 0)"/>
     <use xlink:href="#DejaVuSans-6e" transform="translate(131.005859 0)"/>
     <use xlink:href="#DejaVuSans-69" transform="translate(194.384766 0)"/>
     <use xlink:href="#DejaVuSans-63" transform="translate(222.167969 0)"/>
     <use xlink:href="#DejaVuSans-61" transform="translate(277.148438 0)"/>
     <use xlink:href="#DejaVuSans-6c" transform="translate(338.427734 0)"/>
     <use xlink:href="#DejaVuSans-20" transform="translate(366.210938 0)"/>
     <use xlink:href="#DejaVuSans-68" transform="translate(397.998047 0)"/>
     <use xlink:href="#DejaVuSans-65" transform="translate(461.376953 0)"/>
     <use xlink:href="#DejaVuSans-6c" transform="translate(522.900391 0)"/>
     <use xlink:href="#DejaVuSans-69" transform="translate(550.683594 0)"/>
     <use xlink:href="#DejaVuSans-78" transform="translate(578.466797 0)"/>
     <use xlink:href="#DejaVuSans-3a" transform="translate(637.646484 0)"/>
     <use xlink:href="#DejaVuSans-20" transform="translate(671.337891 0)"/>
     <use xlink:href="#DejaVuSans-62" transform="translate(703.125 0)"/>
     <use xlink:href="#DejaVuSans-61" transform="translate(766.601562 0)"/>
     <use xlink:href="#DejaVuSans-73" transform="translate(827.880859 0)"/>
     <use xlink:href="#DejaVuSans-65" transform="translate(879.980469 0)"/>
     <use xlink:href="#DejaVuSans-20" transform="translate(941.503906 0)"/>
     <use xlink:href="#DejaVuSans-31" transform="translate(973.291016 0)"/>
     <use xlink:href="#DejaVuSans-30" transform="translate(1036.914062 0)"/>
    </g>
   </g>
  </g>
 </g>
 <defs>
  <clipPath id="p239dc93c80">
   <rect x="54.84" y="26.88" width="466.32" height="466.32"/>
  </clipPath>
 </defs>
</svg>
