<?xml version="1.0" encoding="utf-8" standalone="no"?>
<!DOCTYPE svg PUBLIC "-//W3C//DTD SVG 1.1//EN"
  "http://www.w3.org/Graphics/SVG/1.1/DTD/svg11.dtd">
<svg xmlns:xlink="http://www.w3.org/1999/xlink" width="576pt" height="504pt" viewBox="0 0 576 504" xmlns="http://www.w3.org/2000/svg" version="1.1">
 <metadata>
  <rdf:RDF xmlns:dc="http://purl.org/dc/elements/1.1/" xmlns:cc="http://creativecommons.org/ns#" xmlns:rdf="http://www.w3.org/1999/02/22-rdf-syntax-ns#">
   <cc:Work>
    <dc:type rdf:resource="http://purl.org/dc/dcmitype/StillImage"/>
    <dc:date>2026-06-02T09:21:03.214359</dc:date>
    <dc:format>image/svg+xml</dc:format>
    <dc:creator>
     <cc:Agent>
      <dc:title>Matplotlib v3.10.9, https://matplotlib.org/</dc:title>
     </cc:Agent>
    </dc:creator>
   </cc:Work>
  </rdf:RDF>
 </metadata>
 <defs>
  <style type="text/css">*{stroke-linejoin: round; stroke-linecap: butt}</style>
 </defs>
 <g id="figure_1">
  <g id="patch_1">
   <path d="M 0 504 
L 576 504 
L 576 0 
L 0 0 
z
" style="fill: #ffffff"/>
  </g>
  <g id="patch_2">
   <path d="M 54.84 493.2 
L 521.16 493.2 
L 521.16 26.88 
L 54.84 26.88 
z
" style="fill: #ffffff"/>
  </g>
  <g id="pane3d_1">
   <g id="patch_3">
    <path d="M 90.050376 378.220432 
L 244.044469 249.13953 
L 241.903804 62.981793 
L 80.540299 180.737529 
" style="fill: #f2f2f2; opacity: 0.5; stroke: #f2f2f2; stroke-linejoin: miter"/>
   </g>
  </g>
  <g id="pane3d_2">
   <g id="patch_4">
    <path d="M 244.044469 249.13953 
L 491.150044 320.963365 
L 499.96837 128.393638 
L 241.903804 62.981793 
" style="fill: #e6e6e6; opacity: 0.5; stroke: #e6e6e6; stroke-linejoin: miter"/>
   </g>
  </g>
  <g id="pane3d_3">
   <g id="patch_5">
    <path d="M 90.050376 378.220432 
L 351.994354 463.771335 
L 491.150044 320.963365 
L 244.044469 249.13953 
" style="fill: #ececec; opacity: 0.5; stroke: #ececec; stroke-linejoin: miter"/>
   </g>
  </g>
  <g id="grid3d_1">
   <g id="Line3DCollection_1">
    <path d="M 105.820415 383.370927 
L 258.983027 253.481579 
L 257.473963 66.928375 
" style="fill: none; stroke: #b0b0b0; stroke-width: 0.8"/>
    <path d="M 133.27661 392.338121 
L 284.972605 261.035723 
L 284.571844 73.796898 
" style="fill: none; stroke: #b0b0b0; stroke-width: 0.8"/>
    <path d="M 161.045256 401.40736 
L 311.233452 268.668714 
L 311.964778 80.740208 
" style="fill: none; stroke: #b0b0b0; stroke-width: 0.8"/>
    <path d="M 189.131716 410.580398 
L 337.769837 276.381794 
L 339.657611 87.759534 
" style="fill: none; stroke: #b0b0b0; stroke-width: 0.8"/>
    <path d="M 217.541477 419.859026 
L 364.58612 284.176229 
L 367.655295 94.856131 
" style="fill: none; stroke: #b0b0b0; stroke-width: 0.8"/>
    <path d="M 246.280156 429.245078 
L 391.686753 292.053313 
L 395.962892 102.031281 
" style="fill: none; stroke: #b0b0b0; stroke-width: 0.8"/>
    <path d="M 275.353496 438.740431 
L 419.076282 300.014367 
L 424.585575 109.286297 
" style="fill: none; stroke: #b0b0b0; stroke-width: 0.8"/>
    <path d="M 304.767377 448.347005 
L 446.759351 308.060743 
L 453.528636 116.622519 
" style="fill: none; stroke: #b0b0b0; stroke-width: 0.8"/>
    <path d="M 334.527819 458.066765 
L 474.740706 316.193818 
L 482.797483 124.041319 
" style="fill: none; stroke: #b0b0b0; stroke-width: 0.8"/>
   </g>
  </g>
  <g id="grid3d_2">
   <g id="Line3DCollection_2">
    <path d="M 91.465541 172.764785 
L 100.439816 369.511797 
L 361.421427 454.096839 
" style="fill: none; stroke: #b0b0b0; stroke-width: 0.8"/>
    <path d="M 110.325836 159.001401 
L 118.387712 354.467515 
L 377.69357 437.397617 
" style="fill: none; stroke: #b0b0b0; stroke-width: 0.8"/>
    <path d="M 128.812119 145.510954 
L 135.995137 339.708623 
L 393.640744 421.031893 
" style="fill: none; stroke: #b0b0b0; stroke-width: 0.8"/>
    <path d="M 146.935404 132.285406 
L 153.271687 325.227076 
L 409.272588 404.989776 
" style="fill: none; stroke: #b0b0b0; stroke-width: 0.8"/>
    <path d="M 164.70628 119.31703 
L 170.226603 311.015129 
L 424.598361 389.261762 
" style="fill: none; stroke: #b0b0b0; stroke-width: 0.8"/>
    <path d="M 182.134927 106.598398 
L 186.868783 297.065323 
L 439.626968 373.838716 
" style="fill: none; stroke: #b0b0b0; stroke-width: 0.8"/>
    <path d="M 199.231135 94.122363 
L 203.206802 283.370472 
L 454.366966 358.711851 
" style="fill: none; stroke: #b0b0b0; stroke-width: 0.8"/>
    <path d="M 216.004328 81.882051 
L 219.248922 269.923649 
L 468.826592 343.872718 
" style="fill: none; stroke: #b0b0b0; stroke-width: 0.8"/>
    <path d="M 232.463574 69.870843 
L 235.003109 256.718177 
L 483.013769 329.313184 
" style="fill: none; stroke: #b0b0b0; stroke-width: 0.8"/>
   </g>
  </g>
  <g id="grid3d_3">
   <g id="Line3DCollection_3">
    <path d="M 491.697992 308.997581 
L 243.91119 237.549247 
L 89.460378 365.968747 
" style="fill: none; stroke: #b0b0b0; stroke-width: 0.8"/>
    <path d="M 492.838551 284.090677 
L 243.633881 213.433712 
L 88.231895 340.458507 
" style="fill: none; stroke: #b0b0b0; stroke-width: 0.8"/>
    <path d="M 493.992367 258.894276 
L 243.353502 189.051282 
L 86.988589 314.640439 
" style="fill: none; stroke: #b0b0b0; stroke-width: 0.8"/>
    <path d="M 495.159673 233.403301 
L 243.070004 164.397501 
L 85.730188 288.508937 
" style="fill: none; stroke: #b0b0b0; stroke-width: 0.8"/>
    <path d="M 496.340706 207.612555 
L 242.783332 139.467816 
L 84.456417 262.058259 
" style="fill: none; stroke: #b0b0b0; stroke-width: 0.8"/>
    <path d="M 497.53571 181.516718 
L 242.493434 114.257568 
L 83.166993 235.282521 
" style="fill: none; stroke: #b0b0b0; stroke-width: 0.8"/>
    <path d="M 498.744935 155.110347 
L 242.200256 88.761993 
L 81.861624 208.175693 
" style="fill: none; stroke: #b0b0b0; stroke-width: 0.8"/>
   </g>
  </g>
  <g id="axis3d_1">
   <g id="line2d_1">
    <path d="M 90.050376 378.220432 
L 351.994354 463.771335 
" style="fill: none; stroke: #000000; stroke-width: 0.8; stroke-linecap: square"/>
   </g>
   <g id="xtick_1">
    <g id="line2d_2">
     <path d="M 107.154145 382.23986 
L 103.147234 385.637915 
" style="fill: none; stroke: #000000; stroke-width: 0.8; stroke-linecap: square"/>
    </g>
    <g id="text_1">
     <!-- −1.00 -->
     <g transform="translate(82.980653 406.654671) scale(0.1 -0.1)">
      <defs>
       <path id="DejaVuSans-2212" d="M 678 2272 
L 4684 2272 
L 4684 1741 
L 678 1741 
L 678 2272 
z
" transform="scale(0.015625)"/>
       <path id="DejaVuSans-31" d="M 794 531 
L 1825 531 
L 1825 4091 
L 703 3866 
L 703 4441 
L 1819 4666 
L 2450 4666 
L 2450 531 
L 3481 531 
L 3481 0 
L 794 0 
L 794 531 
z
" transform="scale(0.015625)"/>
       <path id="DejaVuSans-2e" d="M 684 794 
L 1344 794 
L 1344 0 
L 684 0 
L 684 794 
z
" transform="scale(0.015625)"/>
       <path id="DejaVuSans-30" d="M 2034 4250 
Q 1547 4250 1301 3770 
Q 1056 3291 1056 2328 
Q 1056 1369 1301 889 
Q 1547 409 2034 409 
Q 2525 409 2770 889 
Q 3016 1369 3016 2328 
Q 3016 3291 2770 3770 
Q 2525 4250 2034 4250 
z
M 2034 4750 
Q 2819 4750 3233 4129 
Q 3647 3509 3647 2328 
Q 3647 1150 3233 529 
Q 2819 -91 2034 -91 
Q 1250 -91 836 529 
Q 422 1150 422 2328 
Q 422 3509 836 4129 
Q 1250 4750 2034 4750 
z
" transform="scale(0.015625)"/>
      </defs>
      <use xlink:href="#DejaVuSans-2212"/>
      <use xlink:href="#DejaVuSans-31" transform="translate(83.789062 0)"/>
      <use xlink:href="#DejaVuSans-2e" transform="translate(147.412109 0)"/>
      <use xlink:href="#DejaVuSans-30" transform="translate(179.199219 0)"/>
      <use xlink:href="#DejaVuSans-30" transform="translate(242.822266 0)"/>
     </g>
    </g>
   </g>
   <g id="xtick_2">
    <g id="line2d_3">
     <path d="M 134.598176 391.194223 
L 130.627777 394.630852 
" style="fill: none; stroke: #000000; stroke-width: 0.8; stroke-linecap: square"/>
    </g>
    <g id="text_2">
     <!-- −0.75 -->
     <g transform="translate(110.452706 415.729896) scale(0.1 -0.1)">
      <defs>
       <path id="DejaVuSans-37" d="M 525 4666 
L 3525 4666 
L 3525 4397 
L 1831 0 
L 1172 0 
L 2766 4134 
L 525 4134 
L 525 4666 
z
" transform="scale(0.015625)"/>
       <path id="DejaVuSans-35" d="M 691 4666 
L 3169 4666 
L 3169 4134 
L 1269 4134 
L 1269 2991 
Q 1406 3038 1543 3061 
Q 1681 3084 1819 3084 
Q 2600 3084 3056 2656 
Q 3513 2228 3513 1497 
Q 3513 744 3044 326 
Q 2575 -91 1722 -91 
Q 1428 -91 1123 -41 
Q 819 9 494 109 
L 494 744 
Q 775 591 1075 516 
Q 1375 441 1709 441 
Q 2250 441 2565 725 
Q 2881 1009 2881 1497 
Q 2881 1984 2565 2268 
Q 2250 2553 1709 2553 
Q 1456 2553 1204 2497 
Q 953 2441 691 2322 
L 691 4666 
z
" transform="scale(0.015625)"/>
      </defs>
      <use xlink:href="#DejaVuSans-2212"/>
      <use xlink:href="#DejaVuSans-30" transform="translate(83.789062 0)"/>
      <use xlink:href="#DejaVuSans-2e" transform="translate(147.412109 0)"/>
      <use xlink:href="#DejaVuSans-37" transform="translate(179.199219 0)"/>
      <use xlink:href="#DejaVuSans-35" transform="translate(242.822266 0)"/>
     </g>
    </g>
   </g>
   <g id="xtick_3">
    <g id="line2d_4">
     <path d="M 162.354293 400.250413 
L 158.4215 403.726276 
" style="fill: none; stroke: #000000; stroke-width: 0.8; stroke-linecap: square"/>
    </g>
    <g id="text_3">
     <!-- −0.50 -->
     <g transform="translate(138.23806 424.908619) scale(0.1 -0.1)">
      <use xlink:href="#DejaVuSans-2212"/>
      <use xlink:href="#DejaVuSans-30" transform="translate(83.789062 0)"/>
      <use xlink:href="#DejaVuSans-2e" transform="translate(147.412109 0)"/>
      <use xlink:href="#DejaVuSans-35" transform="translate(179.199219 0)"/>
      <use xlink:href="#DejaVuSans-30" transform="translate(242.822266 0)"/>
     </g>
    </g>
   </g>
   <g id="xtick_4">
    <g id="line2d_5">
     <path d="M 190.427851 409.410176 
L 186.533787 412.925949 
" style="fill: none; stroke: #000000; stroke-width: 0.8; stroke-linecap: square"/>
    </g>
    <g id="text_4">
     <!-- −0.25 -->
     <g transform="translate(166.342104 434.192619) scale(0.1 -0.1)">
      <defs>
       <path id="DejaVuSans-32" d="M 1228 531 
L 3431 531 
L 3431 0 
L 469 0 
L 469 531 
Q 828 903 1448 1529 
Q 2069 2156 2228 2338 
Q 2531 2678 2651 2914 
Q 2772 3150 2772 3378 
Q 2772 3750 2511 3984 
Q 2250 4219 1831 4219 
Q 1534 4219 1204 4116 
Q 875 4013 500 3803 
L 500 4441 
Q 881 4594 1212 4672 
Q 1544 4750 1819 4750 
Q 2544 4750 2975 4387 
Q 3406 4025 3406 3419 
Q 3406 3131 3298 2873 
Q 3191 2616 2906 2266 
Q 2828 2175 2409 1742 
Q 1991 1309 1228 531 
z
" transform="scale(0.015625)"/>
      </defs>
      <use xlink:href="#DejaVuSans-2212"/>
      <use xlink:href="#DejaVuSans-30" transform="translate(83.789062 0)"/>
      <use xlink:href="#DejaVuSans-2e" transform="translate(147.412109 0)"/>
      <use xlink:href="#DejaVuSans-32" transform="translate(179.199219 0)"/>
      <use xlink:href="#DejaVuSans-35" transform="translate(242.822266 0)"/>
     </g>
    </g>
   </g>
   <g id="xtick_5">
    <g id="line2d_6">
     <path d="M 218.824327 418.6753 
L 214.970147 422.231674 
" style="fill: none; stroke: #000000; stroke-width: 0.8; stroke-linecap: square"/>
    </g>
    <g id="text_5">
     <!-- 0.00 -->
     <g transform="translate(198.960197 443.583718) scale(0.1 -0.1)">
      <use xlink:href="#DejaVuSans-30"/>
      <use xlink:href="#DejaVuSans-2e" transform="translate(63.623047 0)"/>
      <use xlink:href="#DejaVuSans-30" transform="translate(95.410156 0)"/>
      <use xlink:href="#DejaVuSans-30" transform="translate(159.033203 0)"/>
     </g>
    </g>
   </g>
   <g id="xtick_6">
    <g id="line2d_7">
     <path d="M 247.549323 428.047613 
L 243.736216 431.645296 
" style="fill: none; stroke: #000000; stroke-width: 0.8; stroke-linecap: square"/>
    </g>
    <g id="text_6">
     <!-- 0.25 -->
     <g transform="translate(227.718294 453.08378) scale(0.1 -0.1)">
      <use xlink:href="#DejaVuSans-30"/>
      <use xlink:href="#DejaVuSans-2e" transform="translate(63.623047 0)"/>
      <use xlink:href="#DejaVuSans-32" transform="translate(95.410156 0)"/>
      <use xlink:href="#DejaVuSans-35" transform="translate(159.033203 0)"/>
     </g>
    </g>
   </g>
   <g id="xtick_7">
    <g id="line2d_8">
     <path d="M 276.608575 437.528986 
L 272.837762 441.168701 
" style="fill: none; stroke: #000000; stroke-width: 0.8; stroke-linecap: square"/>
    </g>
    <g id="text_7">
     <!-- 0.50 -->
     <g transform="translate(256.812014 462.694713) scale(0.1 -0.1)">
      <use xlink:href="#DejaVuSans-30"/>
      <use xlink:href="#DejaVuSans-2e" transform="translate(63.623047 0)"/>
      <use xlink:href="#DejaVuSans-35" transform="translate(95.410156 0)"/>
      <use xlink:href="#DejaVuSans-30" transform="translate(159.033203 0)"/>
     </g>
    </g>
   </g>
   <g id="xtick_8">
    <g id="line2d_9">
     <path d="M 306.007951 447.121333 
L 302.280687 450.803823 
" style="fill: none; stroke: #000000; stroke-width: 0.8; stroke-linecap: square"/>
    </g>
    <g id="text_8">
     <!-- 0.75 -->
     <g transform="translate(286.247265 472.418469) scale(0.1 -0.1)">
      <use xlink:href="#DejaVuSans-30"/>
      <use xlink:href="#DejaVuSans-2e" transform="translate(63.623047 0)"/>
      <use xlink:href="#DejaVuSans-37" transform="translate(95.410156 0)"/>
      <use xlink:href="#DejaVuSans-35" transform="translate(159.033203 0)"/>
     </g>
    </g>
   </g>
   <g id="xtick_9">
    <g id="line2d_10">
     <path d="M 335.753458 456.826615 
L 332.071035 460.552637 
" style="fill: none; stroke: #000000; stroke-width: 0.8; stroke-linecap: square"/>
    </g>
    <g id="text_9">
     <!-- 1.00 -->
     <g transform="translate(316.030097 482.257047) scale(0.1 -0.1)">
      <use xlink:href="#DejaVuSans-31"/>
      <use xlink:href="#DejaVuSans-2e" transform="translate(63.623047 0)"/>
      <use xlink:href="#DejaVuSans-30" transform="translate(95.410156 0)"/>
      <use xlink:href="#DejaVuSans-30" transform="translate(159.033203 0)"/>
     </g>
    </g>
   </g>
   <g id="text_10">
    <!-- x -->
    <g transform="translate(198.376599 457.774284) scale(0.1 -0.1)">
     <defs>
      <path id="DejaVuSans-78" d="M 3513 3500 
L 2247 1797 
L 3578 0 
L 2900 0 
L 1881 1375 
L 863 0 
L 184 0 
L 1544 1831 
L 300 3500 
L 978 3500 
L 1906 2253 
L 2834 3500 
L 3513 3500 
z
" transform="scale(0.015625)"/>
     </defs>
     <use xlink:href="#DejaVuSans-78"/>
    </g>
   </g>
  </g>
  <g id="axis3d_2">
   <g id="line2d_11">
    <path d="M 491.150044 320.963365 
L 351.994354 463.771335 
" style="fill: none; stroke: #000000; stroke-width: 0.8; stroke-linecap: square"/>
   </g>
   <g id="xtick_10">
    <g id="line2d_12">
     <path d="M 359.222113 453.384034 
L 365.825743 455.524293 
" style="fill: none; stroke: #000000; stroke-width: 0.8; stroke-linecap: square"/>
    </g>
    <g id="text_11">
     <!-- −1.00 -->
     <g transform="translate(358.977634 475.116866) scale(0.1 -0.1)">
      <use xlink:href="#DejaVuSans-2212"/>
      <use xlink:href="#DejaVuSans-31" transform="translate(83.789062 0)"/>
      <use xlink:href="#DejaVuSans-2e" transform="translate(147.412109 0)"/>
      <use xlink:href="#DejaVuSans-30" transform="translate(179.199219 0)"/>
      <use xlink:href="#DejaVuSans-30" transform="translate(242.822266 0)"/>
     </g>
    </g>
   </g>
   <g id="xtick_11">
    <g id="line2d_13">
     <path d="M 375.509495 436.699115 
L 382.067314 438.796409 
" style="fill: none; stroke: #000000; stroke-width: 0.8; stroke-linecap: square"/>
    </g>
    <g id="text_12">
     <!-- −0.75 -->
     <g transform="translate(375.125338 458.276578) scale(0.1 -0.1)">
      <use xlink:href="#DejaVuSans-2212"/>
      <use xlink:href="#DejaVuSans-30" transform="translate(83.789062 0)"/>
      <use xlink:href="#DejaVuSans-2e" transform="translate(147.412109 0)"/>
      <use xlink:href="#DejaVuSans-37" transform="translate(179.199219 0)"/>
      <use xlink:href="#DejaVuSans-35" transform="translate(242.822266 0)"/>
     </g>
    </g>
   </g>
   <g id="xtick_12">
    <g id="line2d_14">
     <path d="M 391.47174 420.347269 
L 397.984251 422.402878 
" style="fill: none; stroke: #000000; stroke-width: 0.8; stroke-linecap: square"/>
    </g>
    <g id="text_13">
     <!-- −0.50 -->
     <g transform="translate(390.950451 441.772718) scale(0.1 -0.1)">
      <use xlink:href="#DejaVuSans-2212"/>
      <use xlink:href="#DejaVuSans-30" transform="translate(83.789062 0)"/>
      <use xlink:href="#DejaVuSans-2e" transform="translate(147.412109 0)"/>
      <use xlink:href="#DejaVuSans-35" transform="translate(179.199219 0)"/>
      <use xlink:href="#DejaVuSans-30" transform="translate(242.822266 0)"/>
     </g>
    </g>
   </g>
   <g id="xtick_13">
    <g id="line2d_15">
     <path d="M 407.118488 404.31862 
L 413.586193 406.333775 
" style="fill: none; stroke: #000000; stroke-width: 0.8; stroke-linecap: square"/>
    </g>
    <g id="text_14">
     <!-- −0.25 -->
     <g transform="translate(406.462542 425.595305) scale(0.1 -0.1)">
      <use xlink:href="#DejaVuSans-2212"/>
      <use xlink:href="#DejaVuSans-30" transform="translate(83.789062 0)"/>
      <use xlink:href="#DejaVuSans-2e" transform="translate(147.412109 0)"/>
      <use xlink:href="#DejaVuSans-32" transform="translate(179.199219 0)"/>
      <use xlink:href="#DejaVuSans-35" transform="translate(242.822266 0)"/>
     </g>
    </g>
   </g>
   <g id="xtick_14">
    <g id="line2d_16">
     <path d="M 422.459002 388.60368 
L 428.882397 390.579564 
" style="fill: none; stroke: #000000; stroke-width: 0.8; stroke-linecap: square"/>
    </g>
    <g id="text_15">
     <!-- 0.00 -->
     <g transform="translate(425.860652 409.734747) scale(0.1 -0.1)">
      <use xlink:href="#DejaVuSans-30"/>
      <use xlink:href="#DejaVuSans-2e" transform="translate(63.623047 0)"/>
      <use xlink:href="#DejaVuSans-30" transform="translate(95.410156 0)"/>
      <use xlink:href="#DejaVuSans-30" transform="translate(159.033203 0)"/>
     </g>
    </g>
   </g>
   <g id="xtick_15">
    <g id="line2d_17">
     <path d="M 437.502184 373.193329 
L 443.881764 375.131078 
" style="fill: none; stroke: #000000; stroke-width: 0.8; stroke-linecap: square"/>
    </g>
    <g id="text_16">
     <!-- 0.25 -->
     <g transform="translate(440.773934 394.181827) scale(0.1 -0.1)">
      <use xlink:href="#DejaVuSans-30"/>
      <use xlink:href="#DejaVuSans-2e" transform="translate(63.623047 0)"/>
      <use xlink:href="#DejaVuSans-32" transform="translate(95.410156 0)"/>
      <use xlink:href="#DejaVuSans-35" transform="translate(159.033203 0)"/>
     </g>
    </g>
   </g>
   <g id="xtick_16">
    <g id="line2d_18">
     <path d="M 452.256596 358.078796 
L 458.592851 359.979504 
" style="fill: none; stroke: #000000; stroke-width: 0.8; stroke-linecap: square"/>
    </g>
    <g id="text_17">
     <!-- 0.50 -->
     <g transform="translate(455.400731 378.927679) scale(0.1 -0.1)">
      <use xlink:href="#DejaVuSans-30"/>
      <use xlink:href="#DejaVuSans-2e" transform="translate(63.623047 0)"/>
      <use xlink:href="#DejaVuSans-35" transform="translate(95.410156 0)"/>
      <use xlink:href="#DejaVuSans-30" transform="translate(159.033203 0)"/>
     </g>
    </g>
   </g>
   <g id="xtick_17">
    <g id="line2d_19">
     <path d="M 466.730474 343.251644 
L 473.023889 345.116363 
" style="fill: none; stroke: #000000; stroke-width: 0.8; stroke-linecap: square"/>
    </g>
    <g id="text_18">
     <!-- 0.75 -->
     <g transform="translate(469.74922 363.963776) scale(0.1 -0.1)">
      <use xlink:href="#DejaVuSans-30"/>
      <use xlink:href="#DejaVuSans-2e" transform="translate(63.623047 0)"/>
      <use xlink:href="#DejaVuSans-37" transform="translate(95.410156 0)"/>
      <use xlink:href="#DejaVuSans-35" transform="translate(159.033203 0)"/>
     </g>
    </g>
   </g>
   <g id="xtick_18">
    <g id="line2d_20">
     <path d="M 480.931743 328.703755 
L 487.182801 330.533498 
" style="fill: none; stroke: #000000; stroke-width: 0.8; stroke-linecap: square"/>
    </g>
    <g id="text_19">
     <!-- 1.00 -->
     <g transform="translate(483.827268 349.281913) scale(0.1 -0.1)">
      <use xlink:href="#DejaVuSans-31"/>
      <use xlink:href="#DejaVuSans-2e" transform="translate(63.623047 0)"/>
      <use xlink:href="#DejaVuSans-30" transform="translate(95.410156 0)"/>
      <use xlink:href="#DejaVuSans-30" transform="translate(159.033203 0)"/>
     </g>
    </g>
   </g>
   <g id="text_20">
    <!-- y -->
    <g transform="translate(448.684491 419.92523) scale(0.1 -0.1)">
     <defs>
      <path id="DejaVuSans-79" d="M 2059 -325 
Q 1816 -950 1584 -1140 
Q 1353 -1331 966 -1331 
L 506 -1331 
L 506 -850 
L 844 -850 
Q 1081 -850 1212 -737 
Q 1344 -625 1503 -206 
L 1606 56 
L 191 3500 
L 800 3500 
L 1894 763 
L 2988 3500 
L 3597 3500 
L 2059 -325 
z
" transform="scale(0.015625)"/>
     </defs>
     <use xlink:href="#DejaVuSans-79"/>
    </g>
   </g>
  </g>
  <g id="axis3d_3">
   <g id="line2d_21">
    <path d="M 491.150044 320.963365 
L 499.96837 128.393638 
" style="fill: none; stroke: #000000; stroke-width: 0.8; stroke-linecap: square"/>
   </g>
   <g id="xtick_19">
    <g id="line2d_22">
     <path d="M 489.618107 308.397854 
L 495.862721 310.198464 
" style="fill: none; stroke: #000000; stroke-width: 0.8; stroke-linecap: square"/>
    </g>
    <g id="text_21">
     <!-- 0 -->
     <g transform="translate(506.838735 314.000972) scale(0.1 -0.1)">
      <use xlink:href="#DejaVuSans-30"/>
     </g>
    </g>
   </g>
   <g id="xtick_20">
    <g id="line2d_23">
     <path d="M 490.746198 283.497433 
L 497.028276 285.278589 
" style="fill: none; stroke: #000000; stroke-width: 0.8; stroke-linecap: square"/>
    </g>
    <g id="text_22">
     <!-- 10 -->
     <g transform="translate(504.901756 289.122135) scale(0.1 -0.1)">
      <use xlink:href="#DejaVuSans-31"/>
      <use xlink:href="#DejaVuSans-30" transform="translate(63.623047 0)"/>
     </g>
    </g>
   </g>
   <g id="xtick_21">
    <g id="line2d_24">
     <path d="M 491.887396 258.307705 
L 498.207389 260.068834 
" style="fill: none; stroke: #000000; stroke-width: 0.8; stroke-linecap: square"/>
    </g>
    <g id="text_23">
     <!-- 20 -->
     <g transform="translate(506.160464 263.95463) scale(0.1 -0.1)">
      <use xlink:href="#DejaVuSans-32"/>
      <use xlink:href="#DejaVuSans-30" transform="translate(63.623047 0)"/>
     </g>
    </g>
   </g>
   <g id="xtick_22">
    <g id="line2d_25">
     <path d="M 493.04193 232.8236 
L 499.400298 234.564109 
" style="fill: none; stroke: #000000; stroke-width: 0.8; stroke-linecap: square"/>
    </g>
    <g id="text_24">
     <!-- 30 -->
     <g transform="translate(507.433861 238.493403) scale(0.1 -0.1)">
      <defs>
       <path id="DejaVuSans-33" d="M 2597 2516 
Q 3050 2419 3304 2112 
Q 3559 1806 3559 1356 
Q 3559 666 3084 287 
Q 2609 -91 1734 -91 
Q 1441 -91 1130 -33 
Q 819 25 488 141 
L 488 750 
Q 750 597 1062 519 
Q 1375 441 1716 441 
Q 2309 441 2620 675 
Q 2931 909 2931 1356 
Q 2931 1769 2642 2001 
Q 2353 2234 1838 2234 
L 1294 2234 
L 1294 2753 
L 1863 2753 
Q 2328 2753 2575 2939 
Q 2822 3125 2822 3475 
Q 2822 3834 2567 4026 
Q 2313 4219 1838 4219 
Q 1578 4219 1281 4162 
Q 984 4106 628 3988 
L 628 4550 
Q 988 4650 1302 4700 
Q 1616 4750 1894 4750 
Q 2613 4750 3031 4423 
Q 3450 4097 3450 3541 
Q 3450 3153 3228 2886 
Q 3006 2619 2597 2516 
z
" transform="scale(0.015625)"/>
      </defs>
      <use xlink:href="#DejaVuSans-33"/>
      <use xlink:href="#DejaVuSans-30" transform="translate(63.623047 0)"/>
     </g>
    </g>
   </g>
   <g id="xtick_23">
    <g id="line2d_26">
     <path d="M 494.210037 207.039927 
L 500.607247 208.759208 
" style="fill: none; stroke: #000000; stroke-width: 0.8; stroke-linecap: square"/>
    </g>
    <g id="text_25">
     <!-- 40 -->
     <g transform="translate(508.722208 212.733281) scale(0.1 -0.1)">
      <defs>
       <path id="DejaVuSans-34" d="M 2419 4116 
L 825 1625 
L 2419 1625 
L 2419 4116 
z
M 2253 4666 
L 3047 4666 
L 3047 1625 
L 3713 1625 
L 3713 1100 
L 3047 1100 
L 3047 0 
L 2419 0 
L 2419 1100 
L 313 1100 
L 313 1709 
L 2253 4666 
z
" transform="scale(0.015625)"/>
      </defs>
      <use xlink:href="#DejaVuSans-34"/>
      <use xlink:href="#DejaVuSans-30" transform="translate(63.623047 0)"/>
     </g>
    </g>
   </g>
   <g id="xtick_24">
    <g id="line2d_27">
     <path d="M 495.391955 180.951372 
L 501.828485 182.648799 
" style="fill: none; stroke: #000000; stroke-width: 0.8; stroke-linecap: square"/>
    </g>
    <g id="text_26">
     <!-- 50 -->
     <g transform="translate(510.025768 186.66897) scale(0.1 -0.1)">
      <use xlink:href="#DejaVuSans-35"/>
      <use xlink:href="#DejaVuSans-30" transform="translate(63.623047 0)"/>
     </g>
    </g>
   </g>
   <g id="xtick_25">
    <g id="line2d_28">
     <path d="M 496.587932 154.552496 
L 503.064268 156.227425 
" style="fill: none; stroke: #000000; stroke-width: 0.8; stroke-linecap: square"/>
    </g>
    <g id="text_27">
     <!-- 60 -->
     <g transform="translate(511.344812 160.295051) scale(0.1 -0.1)">
      <defs>
       <path id="DejaVuSans-36" d="M 2113 2584 
Q 1688 2584 1439 2293 
Q 1191 2003 1191 1497 
Q 1191 994 1439 701 
Q 1688 409 2113 409 
Q 2538 409 2786 701 
Q 3034 994 3034 1497 
Q 3034 2003 2786 2293 
Q 2538 2584 2113 2584 
z
M 3366 4563 
L 3366 3988 
Q 3128 4100 2886 4159 
Q 2644 4219 2406 4219 
Q 1781 4219 1451 3797 
Q 1122 3375 1075 2522 
Q 1259 2794 1537 2939 
Q 1816 3084 2150 3084 
Q 2853 3084 3261 2657 
Q 3669 2231 3669 1497 
Q 3669 778 3244 343 
Q 2819 -91 2113 -91 
Q 1303 -91 875 529 
Q 447 1150 447 2328 
Q 447 3434 972 4092 
Q 1497 4750 2381 4750 
Q 2619 4750 2861 4703 
Q 3103 4656 3366 4563 
z
" transform="scale(0.015625)"/>
      </defs>
      <use xlink:href="#DejaVuSans-36"/>
      <use xlink:href="#DejaVuSans-30" transform="translate(63.623047 0)"/>
     </g>
    </g>
   </g>
   <g id="text_28">
    <!-- log10(N) -->
    <g transform="translate(537.720926 243.094058) rotate(-87.378092) scale(0.1 -0.1)">
     <defs>
      <path id="DejaVuSans-6c" d="M 603 4863 
L 1178 4863 
L 1178 0 
L 603 0 
L 603 4863 
z
" transform="scale(0.015625)"/>
      <path id="DejaVuSans-6f" d="M 1959 3097 
Q 1497 3097 1228 2736 
Q 959 2375 959 1747 
Q 959 1119 1226 758 
Q 1494 397 1959 397 
Q 2419 397 2687 759 
Q 2956 1122 2956 1747 
Q 2956 2369 2687 2733 
Q 2419 3097 1959 3097 
z
M 1959 3584 
Q 2709 3584 3137 3096 
Q 3566 2609 3566 1747 
Q 3566 888 3137 398 
Q 2709 -91 1959 -91 
Q 1206 -91 779 398 
Q 353 888 353 1747 
Q 353 2609 779 3096 
Q 1206 3584 1959 3584 
z
" transform="scale(0.015625)"/>
      <path id="DejaVuSans-67" d="M 2906 1791 
Q 2906 2416 2648 2759 
Q 2391 3103 1925 3103 
Q 1463 3103 1205 2759 
Q 947 2416 947 1791 
Q 947 1169 1205 825 
Q 1463 481 1925 481 
Q 2391 481 2648 825 
Q 2906 1169 2906 1791 
z
M 3481 434 
Q 3481 -459 3084 -895 
Q 2688 -1331 1869 -1331 
Q 1566 -1331 1297 -1286 
Q 1028 -1241 775 -1147 
L 775 -588 
Q 1028 -725 1275 -790 
Q 1522 -856 1778 -856 
Q 2344 -856 2625 -561 
Q 2906 -266 2906 331 
L 2906 616 
Q 2728 306 2450 153 
Q 2172 0 1784 0 
Q 1141 0 747 490 
Q 353 981 353 1791 
Q 353 2603 747 3093 
Q 1141 3584 1784 3584 
Q 2172 3584 2450 3431 
Q 2728 3278 2906 2969 
L 2906 3500 
L 3481 3500 
L 3481 434 
z
" transform="scale(0.015625)"/>
      <path id="DejaVuSans-28" d="M 1984 4856 
Q 1566 4138 1362 3434 
Q 1159 2731 1159 2009 
Q 1159 1288 1364 580 
Q 1569 -128 1984 -844 
L 1484 -844 
Q 1016 -109 783 600 
Q 550 1309 550 2009 
Q 550 2706 781 3412 
Q 1013 4119 1484 4856 
L 1984 4856 
z
" transform="scale(0.015625)"/>
      <path id="DejaVuSans-4e" d="M 628 4666 
L 1478 4666 
L 3547 763 
L 3547 4666 
L 4159 4666 
L 4159 0 
L 3309 0 
L 1241 3903 
L 1241 0 
L 628 0 
L 628 4666 
z
" transform="scale(0.015625)"/>
      <path id="DejaVuSans-29" d="M 513 4856 
L 1013 4856 
Q 1481 4119 1714 3412 
Q 1947 2706 1947 2009 
Q 1947 1309 1714 600 
Q 1481 -109 1013 -844 
L 513 -844 
Q 928 -128 1133 580 
Q 1338 1288 1338 2009 
Q 1338 2731 1133 3434 
Q 928 4138 513 4856 
z
" transform="scale(0.015625)"/>
     </defs>
     <use xlink:href="#DejaVuSans-6c"/>
     <use xlink:href="#DejaVuSans-6f" transform="translate(27.783203 0)"/>
     <use xlink:href="#DejaVuSans-67" transform="translate(88.964844 0)"/>
     <use xlink:href="#DejaVuSans-31" transform="translate(152.441406 0)"/>
     <use xlink:href="#DejaVuSans-30" transform="translate(216.064453 0)"/>
     <use xlink:href="#DejaVuSans-28" transform="translate(279.6875 0)"/>
     <use xlink:href="#DejaVuSans-4e" transform="translate(318.701172 0)"/>
     <use xlink:href="#DejaVuSans-29" transform="translate(393.505859 0)"/>
    </g>
   </g>
  </g>
  <g id="axes_1">
   <g id="line2d_29">
    <path d="M 379.797403 391.075105 
L 410.010833 309.749231 
L 180.410927 306.30607 
L 175.155052 312.16271 
L 236.40624 398.03026 
L 250.616591 401.173233 
L 422.229079 343.361179 
L 200.983354 283.915283 
L 187.923694 292.268955 
L 397.698097 369.295326 
L 370.321463 273.160167 
L 311.476741 256.775807 
L 224.033037 255.472374 
L 170.283984 291.988728 
L 166.415958 322.557608 
L 276.206797 377.22812 
L 372.504586 255.407354 
L 369.612136 254.28601 
L 357.891971 250.3497 
L 209.507883 358.045851 
L 381.324351 355.977185 
L 422.361685 316.093229 
L 395.797684 263.594101 
L 341.519327 242.522992 
L 410.676614 331.776545 
L 408.551438 269.894608 
L 165.311516 291.719784 
L 380.477437 247.569847 
L 164.170889 279.990966 
L 236.368938 251.226549 
L 178.178526 201.43435 
" clip-path="url(#p89614cbe2b)" style="fill: none; stroke: #2457a6; stroke-opacity: 0.65; stroke-linecap: square"/>
   </g>
   <g id="Path3DCollection_1">
    <defs>
     <path id="C0_0_3e90237f5f" d="M 0 2.738613 
C 0.726289 2.738613 1.422928 2.450055 1.936492 1.936492 
C 2.450055 1.422928 2.738613 0.726289 2.738613 -0 
C 2.738613 -0.726289 2.450055 -1.422928 1.936492 -1.936492 
C 1.422928 -2.450055 0.726289 -2.738613 0 -2.738613 
C -0.726289 -2.738613 -1.422928 -2.450055 -1.936492 -1.936492 
C -2.450055 -1.422928 -2.738613 -0.726289 -2.738613 0 
C -2.738613 0.726289 -2.450055 1.422928 -1.936492 1.936492 
C -1.422928 2.450055 -0.726289 2.738613 0 2.738613 
z
"/>
    </defs>
    <g clip-path="url(#p89614cbe2b)">
     <use xlink:href="#C0_0_3e90237f5f" x="311.476741" y="256.775807" style="fill: #d62728; fill-opacity: 0.3; stroke: #d62728; stroke-opacity: 0.3"/>
    </g>
    <g clip-path="url(#p89614cbe2b)">
     <use xlink:href="#C0_0_3e90237f5f" x="341.519327" y="242.522992" style="fill: #1f77b4; fill-opacity: 0.340025; stroke: #1f77b4; stroke-opacity: 0.340025"/>
    </g>
    <g clip-path="url(#p89614cbe2b)">
     <use xlink:href="#C0_0_3e90237f5f" x="370.321463" y="273.160167" style="fill: #d62728; fill-opacity: 0.343425; stroke: #d62728; stroke-opacity: 0.343425"/>
    </g>
    <g clip-path="url(#p89614cbe2b)">
     <use xlink:href="#C0_0_3e90237f5f" x="357.891971" y="250.3497" style="fill: #d62728; fill-opacity: 0.35112; stroke: #d62728; stroke-opacity: 0.35112"/>
    </g>
    <g clip-path="url(#p89614cbe2b)">
     <use xlink:href="#C0_0_3e90237f5f" x="224.033037" y="255.472374" style="fill: #2ca02c; fill-opacity: 0.355396; stroke: #2ca02c; stroke-opacity: 0.355396"/>
    </g>
    <g clip-path="url(#p89614cbe2b)">
     <use xlink:href="#C0_0_3e90237f5f" x="369.612136" y="254.28601" style="fill: #d62728; fill-opacity: 0.366448; stroke: #d62728; stroke-opacity: 0.366448"/>
    </g>
    <g clip-path="url(#p89614cbe2b)">
     <use xlink:href="#C0_0_3e90237f5f" x="200.983354" y="283.915283" style="fill: #ff7f0e; fill-opacity: 0.370771; stroke: #ff7f0e; stroke-opacity: 0.370771"/>
    </g>
    <g clip-path="url(#p89614cbe2b)">
     <use xlink:href="#C0_0_3e90237f5f" x="372.504586" y="255.407354" style="fill: #d62728; fill-opacity: 0.370824; stroke: #d62728; stroke-opacity: 0.370824"/>
    </g>
    <g clip-path="url(#p89614cbe2b)">
     <use xlink:href="#C0_0_3e90237f5f" x="380.477437" y="247.569847" style="fill: #2ca02c; fill-opacity: 0.398817; stroke: #2ca02c; stroke-opacity: 0.398817"/>
    </g>
    <g clip-path="url(#p89614cbe2b)">
     <use xlink:href="#C0_0_3e90237f5f" x="187.923694" y="292.268955" style="fill: #d62728; fill-opacity: 0.403912; stroke: #d62728; stroke-opacity: 0.403912"/>
    </g>
    <g clip-path="url(#p89614cbe2b)">
     <use xlink:href="#C0_0_3e90237f5f" x="180.410927" y="306.30607" style="fill: #ff7f0e; fill-opacity: 0.420089; stroke: #ff7f0e; stroke-opacity: 0.420089"/>
    </g>
    <g clip-path="url(#p89614cbe2b)">
     <use xlink:href="#C0_0_3e90237f5f" x="395.797684" y="263.594101" style="fill: #1f77b4; fill-opacity: 0.422507; stroke: #1f77b4; stroke-opacity: 0.422507"/>
    </g>
    <g clip-path="url(#p89614cbe2b)">
     <use xlink:href="#C0_0_3e90237f5f" x="410.010833" y="309.749231" style="fill: #1f77b4; fill-opacity: 0.4264; stroke: #1f77b4; stroke-opacity: 0.4264"/>
    </g>
    <g clip-path="url(#p89614cbe2b)">
     <use xlink:href="#C0_0_3e90237f5f" x="175.155052" y="312.16271" style="fill: #ff7f0e; fill-opacity: 0.44312; stroke: #ff7f0e; stroke-opacity: 0.44312"/>
    </g>
    <g clip-path="url(#p89614cbe2b)">
     <use xlink:href="#C0_0_3e90237f5f" x="408.551438" y="269.894608" style="fill: #d62728; fill-opacity: 0.467216; stroke: #d62728; stroke-opacity: 0.467216"/>
    </g>
    <g clip-path="url(#p89614cbe2b)">
     <use xlink:href="#C0_0_3e90237f5f" x="170.283984" y="291.988728" style="fill: #d62728; fill-opacity: 0.502736; stroke: #d62728; stroke-opacity: 0.502736"/>
    </g>
    <g clip-path="url(#p89614cbe2b)">
     <use xlink:href="#C0_0_3e90237f5f" x="165.311516" y="291.719784" style="fill: #d62728; fill-opacity: 0.563219; stroke: #d62728; stroke-opacity: 0.563219"/>
    </g>
    <g clip-path="url(#p89614cbe2b)">
     <use xlink:href="#C0_0_3e90237f5f" x="422.229079" y="343.361179" style="fill: #d62728; fill-opacity: 0.574776; stroke: #d62728; stroke-opacity: 0.574776"/>
    </g>
    <g clip-path="url(#p89614cbe2b)">
     <use xlink:href="#C0_0_3e90237f5f" x="166.415958" y="322.557608" style="fill: #d62728; fill-opacity: 0.625714; stroke: #d62728; stroke-opacity: 0.625714"/>
    </g>
    <g clip-path="url(#p89614cbe2b)">
     <use xlink:href="#C0_0_3e90237f5f" x="422.361685" y="316.093229" style="fill: #1f77b4; fill-opacity: 0.629529; stroke: #1f77b4; stroke-opacity: 0.629529"/>
    </g>
    <g clip-path="url(#p89614cbe2b)">
     <use xlink:href="#C0_0_3e90237f5f" x="164.170889" y="279.990966" style="fill: #1f77b4; fill-opacity: 0.66309; stroke: #1f77b4; stroke-opacity: 0.66309"/>
    </g>
    <g clip-path="url(#p89614cbe2b)">
     <use xlink:href="#C0_0_3e90237f5f" x="410.676614" y="331.776545" style="fill: #d62728; fill-opacity: 0.712111; stroke: #d62728; stroke-opacity: 0.712111"/>
    </g>
    <g clip-path="url(#p89614cbe2b)">
     <use xlink:href="#C0_0_3e90237f5f" x="397.698097" y="369.295326" style="fill: #d62728; fill-opacity: 0.714699; stroke: #d62728; stroke-opacity: 0.714699"/>
    </g>
    <g clip-path="url(#p89614cbe2b)">
     <use xlink:href="#C0_0_3e90237f5f" x="379.797403" y="391.075105" style="fill: #d62728; fill-opacity: 0.737461; stroke: #d62728; stroke-opacity: 0.737461"/>
    </g>
    <g clip-path="url(#p89614cbe2b)">
     <use xlink:href="#C0_0_3e90237f5f" x="236.40624" y="398.03026" style="fill: #9467bd; fill-opacity: 0.7812; stroke: #9467bd; stroke-opacity: 0.7812"/>
    </g>
    <g clip-path="url(#p89614cbe2b)">
     <use xlink:href="#C0_0_3e90237f5f" x="381.324351" y="355.977185" style="fill: #1f77b4; fill-opacity: 0.786569; stroke: #1f77b4; stroke-opacity: 0.786569"/>
    </g>
    <g clip-path="url(#p89614cbe2b)">
     <use xlink:href="#C0_0_3e90237f5f" x="209.507883" y="358.045851" style="fill: #d62728; fill-opacity: 0.790137; stroke: #d62728; stroke-opacity: 0.790137"/>
    </g>
    <g clip-path="url(#p89614cbe2b)">
     <use xlink:href="#C0_0_3e90237f5f" x="250.616591" y="401.173233" style="fill: #d62728; fill-opacity: 0.793787; stroke: #d62728; stroke-opacity: 0.793787"/>
    </g>
    <g clip-path="url(#p89614cbe2b)">
     <use xlink:href="#C0_0_3e90237f5f" x="276.206797" y="377.22812" style="fill: #d62728; fill-opacity: 0.847151; stroke: #d62728; stroke-opacity: 0.847151"/>
    </g>
    <g clip-path="url(#p89614cbe2b)">
     <use xlink:href="#C0_0_3e90237f5f" x="178.178526" y="201.43435" style="fill: #1f77b4; fill-opacity: 0.921393; stroke: #1f77b4; stroke-opacity: 0.921393"/>
    </g>
    <g clip-path="url(#p89614cbe2b)">
     <use xlink:href="#C0_0_3e90237f5f" x="236.368938" y="251.226549" style="fill: #2ca02c; stroke: #2ca02c"/>
    </g>
   </g>
   <g id="text_29">
    <!-- Persistence helix: base 31.169194 -->
    <g transform="translate(184.814063 20.88) scale(0.12 -0.12)">
     <defs>
      <path id="DejaVuSans-50" d="M 1259 4147 
L 1259 2394 
L 2053 2394 
Q 2494 2394 2734 2622 
Q 2975 2850 2975 3272 
Q 2975 3691 2734 3919 
Q 2494 4147 2053 4147 
L 1259 4147 
z
M 628 4666 
L 2053 4666 
Q 2838 4666 3239 4311 
Q 3641 3956 3641 3272 
Q 3641 2581 3239 2228 
Q 2838 1875 2053 1875 
L 1259 1875 
L 1259 0 
L 628 0 
L 628 4666 
z
" transform="scale(0.015625)"/>
      <path id="DejaVuSans-65" d="M 3597 1894 
L 3597 1613 
L 953 1613 
Q 991 1019 1311 708 
Q 1631 397 2203 397 
Q 2534 397 2845 478 
Q 3156 559 3463 722 
L 3463 178 
Q 3153 47 2828 -22 
Q 2503 -91 2169 -91 
Q 1331 -91 842 396 
Q 353 884 353 1716 
Q 353 2575 817 3079 
Q 1281 3584 2069 3584 
Q 2775 3584 3186 3129 
Q 3597 2675 3597 1894 
z
M 3022 2063 
Q 3016 2534 2758 2815 
Q 2500 3097 2075 3097 
Q 1594 3097 1305 2825 
Q 1016 2553 972 2059 
L 3022 2063 
z
" transform="scale(0.015625)"/>
      <path id="DejaVuSans-72" d="M 2631 2963 
Q 2534 3019 2420 3045 
Q 2306 3072 2169 3072 
Q 1681 3072 1420 2755 
Q 1159 2438 1159 1844 
L 1159 0 
L 581 0 
L 581 3500 
L 1159 3500 
L 1159 2956 
Q 1341 3275 1631 3429 
Q 1922 3584 2338 3584 
Q 2397 3584 2469 3576 
Q 2541 3569 2628 3553 
L 2631 2963 
z
" transform="scale(0.015625)"/>
      <path id="DejaVuSans-73" d="M 2834 3397 
L 2834 2853 
Q 2591 2978 2328 3040 
Q 2066 3103 1784 3103 
Q 1356 3103 1142 2972 
Q 928 2841 928 2578 
Q 928 2378 1081 2264 
Q 1234 2150 1697 2047 
L 1894 2003 
Q 2506 1872 2764 1633 
Q 3022 1394 3022 966 
Q 3022 478 2636 193 
Q 2250 -91 1575 -91 
Q 1294 -91 989 -36 
Q 684 19 347 128 
L 347 722 
Q 666 556 975 473 
Q 1284 391 1588 391 
Q 1994 391 2212 530 
Q 2431 669 2431 922 
Q 2431 1156 2273 1281 
Q 2116 1406 1581 1522 
L 1381 1569 
Q 847 1681 609 1914 
Q 372 2147 372 2553 
Q 372 3047 722 3315 
Q 1072 3584 1716 3584 
Q 2034 3584 2315 3537 
Q 2597 3491 2834 3397 
z
" transform="scale(0.015625)"/>
      <path id="DejaVuSans-69" d="M 603 3500 
L 1178 3500 
L 1178 0 
L 603 0 
L 603 3500 
z
M 603 4863 
L 1178 4863 
L 1178 4134 
L 603 4134 
L 603 4863 
z
" transform="scale(0.015625)"/>
      <path id="DejaVuSans-74" d="M 1172 4494 
L 1172 3500 
L 2356 3500 
L 2356 3053 
L 1172 3053 
L 1172 1153 
Q 1172 725 1289 603 
Q 1406 481 1766 481 
L 2356 481 
L 2356 0 
L 1766 0 
Q 1100 0 847 248 
Q 594 497 594 1153 
L 594 3053 
L 172 3053 
L 172 3500 
L 594 3500 
L 594 4494 
L 1172 4494 
z
" transform="scale(0.015625)"/>
      <path id="DejaVuSans-6e" d="M 3513 2113 
L 3513 0 
L 2938 0 
L 2938 2094 
Q 2938 2591 2744 2837 
Q 2550 3084 2163 3084 
Q 1697 3084 1428 2787 
Q 1159 2491 1159 1978 
L 1159 0 
L 581 0 
L 581 3500 
L 1159 3500 
L 1159 2956 
Q 1366 3272 1645 3428 
Q 1925 3584 2291 3584 
Q 2894 3584 3203 3211 
Q 3513 2838 3513 2113 
z
" transform="scale(0.015625)"/>
      <path id="DejaVuSans-63" d="M 3122 3366 
L 3122 2828 
Q 2878 2963 2633 3030 
Q 2388 3097 2138 3097 
Q 1578 3097 1268 2742 
Q 959 2388 959 1747 
Q 959 1106 1268 751 
Q 1578 397 2138 397 
Q 2388 397 2633 464 
Q 2878 531 3122 666 
L 3122 134 
Q 2881 22 2623 -34 
Q 2366 -91 2075 -91 
Q 1284 -91 818 406 
Q 353 903 353 1747 
Q 353 2603 823 3093 
Q 1294 3584 2113 3584 
Q 2378 3584 2631 3529 
Q 2884 3475 3122 3366 
z
" transform="scale(0.015625)"/>
      <path id="DejaVuSans-20" transform="scale(0.015625)"/>
      <path id="DejaVuSans-68" d="M 3513 2113 
L 3513 0 
L 2938 0 
L 2938 2094 
Q 2938 2591 2744 2837 
Q 2550 3084 2163 3084 
Q 1697 3084 1428 2787 
Q 1159 2491 1159 1978 
L 1159 0 
L 581 0 
L 581 4863 
L 1159 4863 
L 1159 2956 
Q 1366 3272 1645 3428 
Q 1925 3584 2291 3584 
Q 2894 3584 3203 3211 
Q 3513 2838 3513 2113 
z
" transform="scale(0.015625)"/>
      <path id="DejaVuSans-3a" d="M 750 794 
L 1409 794 
L 1409 0 
L 750 0 
L 750 794 
z
M 750 3309 
L 1409 3309 
L 1409 2516 
L 750 2516 
L 750 3309 
z
" transform="scale(0.015625)"/>
      <path id="DejaVuSans-62" d="M 3116 1747 
Q 3116 2381 2855 2742 
Q 2594 3103 2138 3103 
Q 1681 3103 1420 2742 
Q 1159 2381 1159 1747 
Q 1159 1113 1420 752 
Q 1681 391 2138 391 
Q 2594 391 2855 752 
Q 3116 1113 3116 1747 
z
M 1159 2969 
Q 1341 3281 1617 3432 
Q 1894 3584 2278 3584 
Q 2916 3584 3314 3078 
Q 3713 2572 3713 1747 
Q 3713 922 3314 415 
Q 2916 -91 2278 -91 
Q 1894 -91 1617 61 
Q 1341 213 1159 525 
L 1159 0 
L 581 0 
L 581 4863 
L 1159 4863 
L 1159 2969 
z
" transform="scale(0.015625)"/>
      <path id="DejaVuSans-61" d="M 2194 1759 
Q 1497 1759 1228 1600 
Q 959 1441 959 1056 
Q 959 750 1161 570 
Q 1363 391 1709 391 
Q 2188 391 2477 730 
Q 2766 1069 2766 1631 
L 2766 1759 
L 2194 1759 
z
M 3341 1997 
L 3341 0 
L 2766 0 
L 2766 531 
Q 2569 213 2275 61 
Q 1981 -91 1556 -91 
Q 1019 -91 701 211 
Q 384 513 384 1019 
Q 384 1609 779 1909 
Q 1175 2209 1959 2209 
L 2766 2209 
L 2766 2266 
Q 2766 2663 2505 2880 
Q 2244 3097 1772 3097 
Q 1472 3097 1187 3025 
Q 903 2953 641 2809 
L 641 3341 
Q 956 3463 1253 3523 
Q 1550 3584 1831 3584 
Q 2591 3584 2966 3190 
Q 3341 2797 3341 1997 
z
" transform="scale(0.015625)"/>
      <path id="DejaVuSans-39" d="M 703 97 
L 703 672 
Q 941 559 1184 500 
Q 1428 441 1663 441 
Q 2288 441 2617 861 
Q 2947 1281 2994 2138 
Q 2813 1869 2534 1725 
Q 2256 1581 1919 1581 
Q 1219 1581 811 2004 
Q 403 2428 403 3163 
Q 403 3881 828 4315 
Q 1253 4750 1959 4750 
Q 2769 4750 3195 4129 
Q 3622 3509 3622 2328 
Q 3622 1225 3098 567 
Q 2575 -91 1691 -91 
Q 1453 -91 1209 -44 
Q 966 3 703 97 
z
M 1959 2075 
Q 2384 2075 2632 2365 
Q 2881 2656 2881 3163 
Q 2881 3666 2632 3958 
Q 2384 4250 1959 4250 
Q 1534 4250 1286 3958 
Q 1038 3666 1038 3163 
Q 1038 2656 1286 2365 
Q 1534 2075 1959 2075 
z
" transform="scale(0.015625)"/>
     </defs>
     <use xlink:href="#DejaVuSans-50"/>
     <use xlink:href="#DejaVuSans-65" transform="translate(56.677734 0)"/>
     <use xlink:href="#DejaVuSans-72" transform="translate(118.201172 0)"/>
     <use xlink:href="#DejaVuSans-73" transform="translate(159.314453 0)"/>
     <use xlink:href="#DejaVuSans-69" transform="translate(211.414062 0)"/>
     <use xlink:href="#DejaVuSans-73" transform="translate(239.197266 0)"/>
     <use xlink:href="#DejaVuSans-74" transform="translate(291.296875 0)"/>
     <use xlink:href="#DejaVuSans-65" transform="translate(330.505859 0)"/>
     <use xlink:href="#DejaVuSans-6e" transform="translate(392.029297 0)"/>
     <use xlink:href="#DejaVuSans-63" transform="translate(455.408203 0)"/>
     <use xlink:href="#DejaVuSans-65" transform="translate(510.388672 0)"/>
     <use xlink:href="#DejaVuSans-20" transform="translate(571.912109 0)"/>
     <use xlink:href="#DejaVuSans-68" transform="translate(603.699219 0)"/>
     <use xlink:href="#DejaVuSans-65" transform="translate(667.078125 0)"/>
     <use xlink:href="#DejaVuSans-6c" transform="translate(728.601562 0)"/>
     <use xlink:href="#DejaVuSans-69" transform="translate(756.384766 0)"/>
     <use xlink:href="#DejaVuSans-78" transform="translate(784.167969 0)"/>
     <use xlink:href="#DejaVuSans-3a" transform="translate(843.347656 0)"/>
     <use xlink:href="#DejaVuSans-20" transform="translate(877.039062 0)"/>
     <use xlink:href="#DejaVuSans-62" transform="translate(908.826172 0)"/>
     <use xlink:href="#DejaVuSans-61" transform="translate(972.302734 0)"/>
     <use xlink:href="#DejaVuSans-73" transform="translate(1033.582031 0)"/>
     <use xlink:href="#DejaVuSans-65" transform="translate(1085.681641 0)"/>
     <use xlink:href="#DejaVuSans-20" transform="translate(1147.205078 0)"/>
     <use xlink:href="#DejaVuSans-33" transform="translate(1178.992188 0)"/>
     <use xlink:href="#DejaVuSans-31" transform="translate(1242.615234 0)"/>
     <use xlink:href="#DejaVuSans-2e" transform="translate(1306.238281 0)"/>
     <use xlink:href="#DejaVuSans-31" transform="translate(1338.025391 0)"/>
     <use xlink:href="#DejaVuSans-36" transform="translate(1401.648438 0)"/>
     <use xlink:href="#DejaVuSans-39" transform="translate(1465.271484 0)"/>
     <use xlink:href="#DejaVuSans-31" transform="translate(1528.894531 0)"/>
     <use xlink:href="#DejaVuSans-39" transform="translate(1592.517578 0)"/>
     <use xlink:href="#DejaVuSans-34" transform="translate(1656.140625 0)"/>
    </g>
   </g>
  </g>
 </g>
 <defs>
  <clipPath id="p89614cbe2b">
   <rect x="54.84" y="26.88" width="466.32" height="466.32"/>
  </clipPath>
 </defs>
</svg>
